<svg xmlns="http://www.w3.org/2000/svg" width="32" height="32" viewBox="0 0 32 32">
  <defs>
    <style>
      .cls-1 {
        fill: #454546;
        fill-rule: evenodd;
      }
    </style>
  </defs>
  <path id="BRIGHTNESS_HIGH" data-name="BRIGHTNESS / HIGH" class="cls-1" d="M1220.5,1489.5h-4a1.5,1.5,0,0,1,0-3h4A1.5,1.5,0,0,1,1220.5,1489.5Zm-2.44-11.44-2.72,2.72-0.78.78h0a1.5,1.5,0,0,1-2.56-1.06,1.488,1.488,0,0,1,.44-1.06h0l0.78-.78,2.72-2.72h0a1.5,1.5,0,1,1,2.12,2.12h0ZM1206,1494a6,6,0,0,1-5.22-3.04l-0.59-1.48A6,6,0,1,1,1206,1494Zm0-9a3,3,0,1,0,3,3A3,3,0,0,0,1206,1485Zm0-6a1.5,1.5,0,0,1-1.5-1.5h0v-4a1.5,1.5,0,0,1,3,0v4h0A1.5,1.5,0,0,1,1206,1479Zm-6.44,17.56h0l-0.78.78-2.72,2.72h0a1.5,1.5,0,1,1-2.12-2.12h0l2.72-2.72,0.78-.78h0a1.5,1.5,0,1,1,2.12,2.12h0ZM1198.5,1482a1.505,1.505,0,0,1-1.06-.44h0l-0.78-.78-2.72-2.72h0a1.5,1.5,0,1,1,2.12-2.12h0l2.72,2.72,0.78,0.78h0A1.5,1.5,0,0,1,1198.5,1482Zm-3,4.5a1.5,1.5,0,0,1,0,3h-4a1.5,1.5,0,0,1,0-3h4ZM1206,1497a1.5,1.5,0,0,1,1.5,1.5h0v4a1.5,1.5,0,0,1-3,0v-4h0A1.5,1.5,0,0,1,1206,1497Zm7.5-3a1.505,1.505,0,0,1,1.06.44h0l0.78,0.78,2.72,2.72h0a1.5,1.5,0,1,1-2.12,2.12h0l-2.72-2.72-0.78-.78h0A1.5,1.5,0,0,1,1213.5,1494Z" transform="translate(-1190 -1472)"/>
</svg>
