<svg xmlns="http://www.w3.org/2000/svg" width="32" height="26" viewBox="0 0 32 26">
  <defs>
    <style>
      .cls-1 {
        fill: #454546;
        fill-rule: evenodd;
      }
    </style>
  </defs>
  <path id="CAMERA" class="cls-1" d="M813.5,1501h-29a1.5,1.5,0,0,1-1.5-1.5v-20a1.5,1.5,0,0,1,1.5-1.5h6.406l2.4-2.4a1.5,1.5,0,0,1,1.191-.6h9a1.488,1.488,0,0,1,1.073.45h0l2.546,2.55H813.5a1.5,1.5,0,0,1,1.5,1.5v20A1.5,1.5,0,0,1,813.5,1501ZM799,1480a9,9,0,1,0,9,9A9,9,0,0,0,799,1480Zm0,15a6,6,0,1,1,6-6A6,6,0,0,1,799,1495Z" transform="translate(-783 -1475)"/>
</svg>
