<svg xmlns="http://www.w3.org/2000/svg" width="38.406" height="28.82" viewBox="0 0 38.406 28.82">
  <defs>
    <style>
      .cls-1 {
        fill: #454546;
        fill-rule: evenodd;
      }
    </style>
  </defs>
  <path id="CODE" class="cls-1" d="M412.678,1189.29h0l-7.2,7.2h0a1.8,1.8,0,0,1-3.053-1.29,1.774,1.774,0,0,1,.511-1.25h0l5.936-5.94-5.918-5.92h0a1.8,1.8,0,1,1,2.542-2.54h0l7.1,7.09A1.787,1.787,0,0,1,412.678,1189.29ZM390.9,1201.21a1.8,1.8,0,1,1-3.374-1.26l9.587-25.16a1.8,1.8,0,1,1,3.373,1.26Zm-5.821-19.12-5.918,5.92,5.937,5.94h0a1.773,1.773,0,0,1,.51,1.25,1.8,1.8,0,0,1-3.052,1.29h0l-7.2-7.2h0a1.786,1.786,0,0,1,.084-2.65l7.1-7.09h0a1.781,1.781,0,0,1,1.29-.55,1.8,1.8,0,0,1,1.252,3.09h0Z" transform="translate(-374.813 -1173.59)"/>
</svg>
