<?xml version="1.0" ?><!DOCTYPE svg  PUBLIC '-//W3C//DTD SVG 1.1//EN'  'http://www.w3.org/Graphics/SVG/1.1/DTD/svg11.dtd'><svg enable-background="new 0 0 128 128" id="Слой_1" version="1.1" viewBox="0 0 128 128" xml:space="preserve" xmlns="http://www.w3.org/2000/svg" xmlns:xlink="http://www.w3.org/1999/xlink"><circle cx="64" cy="64" fill="#F6EEB1" r="62"/><g><rect fill="#FFF7E7" height="56.9" width="79.3" x="15.5" y="67.7"/><g><rect fill="#FFFFFF" height="56.9" width="6.3" x="15.5" y="67.7"/></g><path d="M25.5,124.7V87.7c0-2.5,2-4.5,4.5-4.5h12.8c2.5,0,4.5,2,4.5,4.5v36.9" fill="#288CA3"/><path d="M63,109.1h16.9c2.5,0,4.5-2,4.5-4.5V87.7c0-2.5-2-4.5-4.5-4.5H63c-2.5,0-4.5,2-4.5,4.5v16.9   C58.5,107.1,60.5,109.1,63,109.1z" fill="#95D6DD"/><path d="M70.2,41.8v-4.5c0-2.5,2-4.5,4.5-4.5h2.4c2.5,0,4.5,2,4.5,4.5v4.5" fill="#A5A4AA"/><path d="M98.6,67.7h12.8c3.1,0,5.2-3,4.2-5.9l-5.9-16.9c-0.6-1.8-2.3-3-4.2-3l-84.8,0c-1.9,0-3.6,1.2-4.2,3   l-5.9,16.9c-1,2.9,1.2,5.9,4.2,5.9H98.6z" fill="#917E8E"/><g><path d="M20.7,41.8c-1.9,0-3.6,1.2-4.2,3l-5.9,16.9c-1,2.9,1.2,5.9,4.2,5.9h6.3c-3.1,0-5.2-3-4.2-5.9l5.9-16.9    c0.6-1.8,2.3-3,4.2-3l78.6,0c0,0,0,0,0,0L20.7,41.8z" fill="#FFFFFF"/></g><path d="M63,110.5h16.9c3.2,0,5.8-2.6,5.8-5.8V87.7c0-3.2-2.6-5.8-5.8-5.8H63c-3.2,0-5.8,2.6-5.8,5.8v16.9   C57.1,107.9,59.8,110.5,63,110.5z M59.8,87.7c0-1.7,1.4-3.1,3.1-3.1h16.9c1.7,0,3.1,1.4,3.1,3.1v16.9c0,1.7-1.4,3.1-3.1,3.1H63   c-1.7,0-3.1-1.4-3.1-3.1V87.7z" fill="#62355C"/><path d="M113.2,107.8h-17V69h15.2c1.9,0,3.6-0.9,4.7-2.4c1.1-1.6,1.4-3.5,0.8-5.3L111,44.4c-0.8-2.3-3-3.9-5.5-3.9   l-22.6,0v-3.1c0-3.2-2.6-5.8-5.8-5.8h-2.4c-3.2,0-5.8,2.6-5.8,5.8v3.1l-48.2,0c-2.5,0-4.7,1.6-5.5,3.9L9.3,61.3   c-0.6,1.8-0.3,3.7,0.8,5.3c1,1.4,2.4,2.2,4.1,2.4v54.3h-3.8c-0.7,0-1.3,0.6-1.3,1.3s0.6,1.3,1.3,1.3l15.2,0c0,0,0,0,0,0s0,0,0,0   l21.8,0c0,0,0,0,0,0c0,0,0,0,0,0l65.9,0c3.2,0,5.8-2.6,5.8-5.8v-6.6C119,110.4,116.4,107.8,113.2,107.8z M109.2,110.5v12.8l-4.5,0   v-12.8H109.2z M102,110.5v12.8h-5.8v-12.8H102z M71.6,37.3c0-1.7,1.4-3.1,3.1-3.1h2.4c1.7,0,3.1,1.4,3.1,3.1v3.1l-8.7,0V37.3z    M12.3,65.1c-0.6-0.8-0.7-1.9-0.4-2.8l5.9-16.9c0.4-1.3,1.6-2.1,3-2.1l84.8,0c1.3,0,2.5,0.8,3,2.1l5.9,16.9c0.3,1,0.2,2-0.4,2.8   c-0.6,0.8-1.5,1.3-2.5,1.3H14.8C13.8,66.4,12.9,65.9,12.3,65.1z M16.9,69h76.6v54.3l-44.9,0V87.7c0-3.2-2.6-5.8-5.8-5.8H30   c-3.2,0-5.8,2.6-5.8,5.8v35.6l-7.3,0V69z M45.9,123.3l-19.1,0V87.7c0-1.7,1.4-3.1,3.1-3.1h12.8c1.7,0,3.1,1.4,3.1,3.1V123.3z    M116.3,120.2c0,1.7-1.4,3.1-3.1,3.1h-1.3v-12.8h1.3c1.7,0,3.1,1.4,3.1,3.1V120.2z" fill="#62355C"/><g><path d="M84.4,62.8H25.5c-0.8,0-1.4-0.6-1.4-1.4s0.6-1.4,1.4-1.4h58.9c0.8,0,1.4,0.6,1.4,1.4S85.1,62.8,84.4,62.8z    " fill="#62355C"/></g></g></svg>