<svg xmlns="http://www.w3.org/2000/svg" width="35.219" height="20.38" viewBox="0 0 35.219 20.38">
  <defs>
    <style>
      .cls-1 {
        fill: #454546;
        fill-rule: evenodd;
      }
    </style>
  </defs>
  <path id="VIEW" class="cls-1" d="M409.549,1487.57c0,0.01,0,.03,0,0.04a0.08,0.08,0,0,1,0,.02,0.271,0.271,0,0,1,0,.04,0.157,0.157,0,0,1,0,.03v0.01a1.358,1.358,0,0,1-.368.74c-0.369.45-.773,0.87-1.179,1.28a30.33,30.33,0,0,1-7.465,5.65,19.732,19.732,0,0,1-5.594,2.02,16,16,0,0,1-6.428-.09,24.271,24.271,0,0,1-9.965-5.18,27.322,27.322,0,0,1-3.817-3.68,1.407,1.407,0,0,1,0-1.9c0.369-.45.772-0.87,1.178-1.28a30.316,30.316,0,0,1,7.466-5.65,19.726,19.726,0,0,1,5.593-2.02,16,16,0,0,1,6.429.09,24.267,24.267,0,0,1,9.964,5.18,27.377,27.377,0,0,1,3.817,3.68,1.345,1.345,0,0,1,.368.74,0.034,0.034,0,0,0,0,.01c0,0.01,0,.02,0,0.03s0,0.03,0,.04l0,0.02c0,0.01,0,.03,0,0.04,0,0.03,0,.05,0,0.07S409.55,1487.55,409.549,1487.57Zm-17.6-6.95a6.6,6.6,0,1,0,6.6,6.6A6.6,6.6,0,0,0,391.95,1480.62Zm0,9.9a3.3,3.3,0,1,1,3.3-3.3A3.295,3.295,0,0,1,391.95,1490.52Z" transform="translate(-374.344 -1477.31)"/>
</svg>
