<svg xmlns="http://www.w3.org/2000/svg" width="31.62" height="28.5" viewBox="0 0 31.62 28.5">
  <defs>
    <style>
      .cls-1 {
        fill: #454546;
        fill-rule: evenodd;
      }
    </style>
  </defs>
  <path id="WIFI_3" data-name="WIFI 3" class="cls-1" d="M1218.96,1181.94a19.97,19.97,0,0,0-27.92,0l-1.85-2.39a22.988,22.988,0,0,1,31.62,0Zm-13.96-1.19a15.434,15.434,0,0,1,11.18,4.77l-1.87,2.41a12.458,12.458,0,0,0-18.62,0l-1.87-2.41A15.434,15.434,0,0,1,1205,1180.75Zm0,7.5a7.955,7.955,0,0,1,6.48,3.33l-1.65,2.12a5.986,5.986,0,0,0-9.66,0l-1.65-2.12A7.955,7.955,0,0,1,1205,1188.25Zm0,7.5a3,3,0,1,1-3,3A3,3,0,0,1,1205,1195.75Z" transform="translate(-1189.19 -1173.25)"/>
</svg>
